<?xml version="1.0" standalone="no"?>
<!DOCTYPE svg PUBLIC "-//W3C//DTD SVG 20010904//EN"
 "http://www.w3.org/TR/2001/REC-SVG-20010904/DTD/svg10.dtd">
<svg version="1.0" xmlns="http://www.w3.org/2000/svg"
 width="500.000000pt" height="500.000000pt" viewBox="0 0 500.000000 500.000000"
 preserveAspectRatio="xMidYMid meet">
<metadata>
Created by potrace 1.16, written by Peter Selinger 2001-2019
</metadata>
<g transform="translate(0.000000,500.000000) scale(0.100000,-0.100000)"
fill="#000000" stroke="none">
<path d="M2370 3518 c-69 -33 -237 -113 -375 -178 -1075 -505 -1641 -773
-1647 -779 -7 -6 2110 -1001 2148 -1009 8 -2 98 36 201 84 104 48 258 119 343
159 259 120 1183 552 1375 642 99 47 197 92 218 100 21 9 35 19 30 23 -4 4
-109 55 -233 113 -232 108 -1282 603 -1679 791 -123 58 -231 107 -240 110 -9
2 -72 -23 -141 -56z m1115 -453 c523 -246 978 -461 1013 -477 l63 -30 -133
-63 c-73 -34 -162 -76 -198 -92 -95 -44 -1102 -514 -1260 -588 -500 -234 -459
-217 -499 -201 -20 8 -160 73 -311 143 -151 71 -598 280 -992 464 -395 183
-714 337 -710 340 4 4 387 186 852 405 465 218 924 434 1020 480 116 54 180
79 190 74 8 -4 443 -209 965 -455z"/>
<path d="M2220 3230 c-26 -26 -27 -83 0 -110 20 -20 24 -21 125 -41 69 -13
101 -27 89 -39 -5 -5 -47 -18 -94 -30 -47 -12 -99 -30 -115 -40 -33 -21 -75
-87 -74 -116 0 -11 7 -1 15 21 19 53 34 67 34 32 0 -16 10 -38 25 -52 51 -52
135 -17 135 55 0 21 -4 42 -10 45 -22 14 -6 23 68 42 l78 20 170 -39 c93 -21
173 -38 177 -38 5 0 7 7 5 16 -2 10 -43 29 -118 53 -64 22 -108 41 -100 44 8
3 61 18 118 33 66 17 102 32 102 40 0 20 -21 18 -203 -16 -160 -30 -163 -31
-229 -14 l-67 16 6 48 c5 40 2 51 -16 69 -11 11 -29 21 -38 20 -14 0 -15 -2
-3 -6 48 -18 66 -78 34 -114 -17 -19 -17 -19 89 -45 15 -3 26 -8 23 -11 -9 -9
-201 39 -218 54 -36 32 -17 98 32 116 12 4 11 6 -2 6 -10 1 -27 -8 -38 -19z
m618 -105 c-3 -3 -97 -30 -209 -60 -340 -92 -312 -82 -294 -108 35 -50 4 -117
-55 -117 -56 0 -90 69 -57 114 9 12 53 29 118 46 80 21 104 31 103 44 -1 9 -1
16 0 17 0 0 78 15 171 33 163 32 234 42 223 31z"/>
<path d="M2290 2715 c0 -8 7 -15 15 -15 12 0 15 -13 15 -60 l0 -60 -25 16
c-56 36 -135 11 -161 -51 -18 -44 -18 -65 2 -115 27 -66 115 -94 161 -50 22
20 22 20 28 0 5 -15 15 -20 41 -20 38 0 48 24 14 33 -19 5 -20 14 -20 171 l0
166 -35 0 c-24 0 -35 -5 -35 -15z m5 -160 c19 -18 25 -35 25 -70 0 -103 -107
-131 -146 -39 -38 92 55 176 121 109z"/>
<path d="M1934 2609 c-47 -13 -76 -51 -82 -107 -8 -86 41 -142 125 -142 43 0
103 32 103 55 0 19 -19 19 -40 0 -10 -9 -34 -18 -53 -22 -31 -5 -40 -1 -67 25
-53 53 -43 62 65 62 94 0 95 0 95 24 0 78 -68 127 -146 105z"/>
<path d="M2531 2609 c-103 -22 -126 -185 -31 -234 62 -32 146 -11 175 45 54
105 -28 214 -144 189z m80 -42 c47 -36 52 -105 10 -148 -38 -38 -74 -38 -112
0 -38 39 -39 87 -3 130 28 33 75 41 105 18z"/>
<path d="M2865 2613 c-11 -3 -28 -12 -37 -21 -16 -14 -18 -14 -18 1 0 13 -9
17 -35 17 -24 0 -35 -5 -35 -15 0 -8 7 -15 15 -15 12 0 15 -17 15 -95 0 -78
-3 -95 -15 -95 -8 0 -15 -7 -15 -15 0 -11 12 -15 50 -15 38 0 50 4 50 15 0 8
-7 15 -15 15 -12 0 -15 15 -15 75 0 63 3 77 22 95 12 11 34 20 49 20 42 0 59
-32 59 -113 0 -60 -2 -70 -20 -74 -11 -3 -20 -12 -20 -19 0 -10 15 -14 55 -14
42 0 55 3 55 15 0 8 -7 15 -15 15 -12 0 -15 16 -15 81 0 90 10 108 62 109 44
0 58 -32 58 -132 l0 -88 35 0 c24 0 35 5 35 15 0 8 -6 15 -14 15 -11 0 -15 21
-18 90 -2 76 -6 93 -25 111 -27 28 -95 30 -123 4 -18 -17 -22 -17 -37 -2 -21
18 -60 27 -88 20z"/>
<path d="M3282 2610 c-43 -10 -60 -26 -45 -41 8 -8 17 -8 31 0 32 17 87 13
105 -7 31 -34 22 -49 -35 -54 -69 -6 -110 -26 -122 -61 -24 -67 74 -113 149
-68 32 19 33 19 38 0 6 -24 67 -28 67 -4 0 8 -7 15 -15 15 -8 0 -15 3 -16 8 0
4 -2 43 -4 86 -3 67 -7 82 -27 101 -27 26 -78 36 -126 25z"/>
<path d="M1630 2596 c0 -7 8 -16 18 -18 15 -4 19 -17 20 -78 3 -84 -3 -110
-24 -110 -8 0 -14 -7 -14 -15 0 -12 13 -15 55 -15 42 0 55 3 55 15 0 8 -7 15
-15 15 -12 0 -15 14 -15 65 0 57 3 69 25 90 15 16 36 25 55 25 23 0 30 4 30
20 0 36 -66 21 -102 -24 -17 -21 -18 -21 -18 12 0 30 -2 32 -35 32 -23 0 -35
-5 -35 -14z"/>
</g>
</svg>
