<?xml version="1.0" standalone="no"?>
<!DOCTYPE svg PUBLIC "-//W3C//DTD SVG 20010904//EN"
 "http://www.w3.org/TR/2001/REC-SVG-20010904/DTD/svg10.dtd">
<svg version="1.0" xmlns="http://www.w3.org/2000/svg"
 width="608.000000pt" height="406.000000pt" viewBox="0 0 608.000000 406.000000"
 preserveAspectRatio="xMidYMid meet">
<metadata>
Created by potrace 1.16, written by Peter Selinger 2001-2019
</metadata>
<g transform="translate(0.000000,406.000000) scale(0.100000,-0.100000)"
fill="#000000" stroke="none">
<path d="M0 2636 c0 -1130 3 -1425 13 -1429 10 -4 10 -6 0 -6 -10 -1 -13 -128
-13 -601 l0 -600 943 0 942 1 39 45 c22 26 39 54 39 63 -1 19 21 105 36 144
13 34 13 37 2 37 -5 0 -11 -14 -15 -32 -9 -45 -16 -31 -9 20 5 38 8 41 29 36
16 -4 24 -2 24 7 0 7 2 10 5 7 7 -6 -39 -167 -56 -201 -16 -31 -4 -18 36 39
19 27 35 44 35 38 0 -8 -86 -133 -133 -191 -7 -10 409 -13 2077 -13 l2086 0 0
2030 0 2030 -715 0 c-669 0 -715 -1 -725 -17 -10 -17 -10 -17 -20 0 -10 16
-131 17 -2315 17 l-2305 0 0 -1424z m4065 1344 c-4 -6 6 -8 24 -6 24 3 31 -1
33 -18 2 -16 10 -21 33 -21 18 0 39 -9 53 -22 14 -15 34 -23 55 -23 56 0 94
-40 103 -109 3 -22 1 -23 -47 -19 -40 4 -52 2 -59 -12 -9 -18 -4 -30 12 -30 5
0 6 5 3 10 -10 17 15 11 33 -7 16 -16 16 -16 0 -10 -12 4 -18 2 -18 -8 0 -8
-5 -15 -12 -15 -19 0 -47 -31 -41 -46 3 -8 -1 -14 -11 -14 -13 0 -14 -5 -5
-26 8 -24 8 -25 -6 -14 -22 19 -148 25 -185 10 -29 -12 -31 -15 -24 -56 5 -35
2 -48 -15 -70 -23 -29 -28 -55 -9 -52 7 2 12 -2 13 -8 0 -6 8 -18 18 -28 27
-27 13 -34 -58 -28 -69 5 -79 -2 -44 -31 11 -10 18 -21 15 -24 -3 -3 -12 -1
-19 6 -19 15 -111 -43 -128 -82 -6 -15 -16 -30 -22 -34 -5 -3 -7 -1 -3 5 3 6
1 14 -5 18 -7 4 -9 3 -5 -4 9 -14 -21 -42 -45 -42 -16 0 -18 -5 -13 -27 4 -16
4 -25 0 -22 -7 7 -45 -23 -130 -103 -28 -27 -45 -48 -38 -48 6 0 12 5 12 10 0
6 5 10 10 10 14 0 13 -19 -2 -34 -45 -46 -56 -64 -45 -75 8 -8 3 -19 -17 -40
-26 -27 -27 -31 -13 -45 20 -20 34 -21 17 -1 -10 12 -2 24 45 70 34 33 50 55
41 55 -9 0 -16 -4 -16 -10 0 -5 -6 -10 -14 -10 -8 0 -16 -6 -19 -12 -2 -7 -8
-10 -12 -6 -7 7 106 122 137 139 9 5 19 5 22 1 8 -13 -23 -52 -40 -52 -8 0
-14 -4 -14 -10 0 -5 5 -10 10 -10 14 0 12 -27 -2 -33 -9 -3 -4 -14 15 -31 31
-31 34 -46 10 -47 -11 0 -13 -3 -5 -6 16 -6 16 -26 0 -21 -7 3 -18 0 -24 -6
-9 -8 -7 -18 9 -40 19 -27 19 -29 3 -23 -15 6 -17 3 -13 -12 3 -14 1 -18 -9
-14 -17 6 -18 -9 -2 -25 6 -6 8 -15 3 -19 -4 -5 -10 -2 -12 5 -3 6 -9 10 -14
6 -14 -8 -11 -24 6 -24 8 0 15 -7 15 -15 0 -8 -4 -15 -10 -15 -5 0 -10 5 -10
10 0 6 -7 10 -15 10 -22 0 -18 -14 7 -25 26 -12 36 -35 14 -35 -9 0 -16 -4
-16 -10 0 -5 5 -10 10 -10 6 0 10 -4 10 -9 0 -5 -9 -7 -20 -4 -11 3 -20 1 -20
-5 0 -5 9 -12 20 -15 20 -5 29 -27 11 -27 -5 0 -7 -10 -4 -21 4 -16 2 -20 -8
-17 -7 2 -19 -6 -26 -20 -17 -31 -17 -32 7 -32 11 0 20 -7 20 -15 0 -8 -5 -15
-12 -15 -9 0 -9 -3 0 -12 18 -18 14 -28 -10 -28 -21 -1 -21 -2 -5 -11 13 -8
15 -15 7 -28 -5 -10 -7 -21 -3 -24 3 -4 -2 -10 -11 -13 -13 -5 -14 -9 -5 -15
19 -12 17 -59 -3 -70 -10 -5 -18 -16 -18 -24 0 -8 -5 -15 -11 -15 -6 0 -9 -5
-7 -11 2 -6 8 -9 13 -7 6 2 9 6 8 10 -1 3 5 12 13 19 13 11 14 9 8 -17 -10
-41 -15 -47 -27 -35 -17 17 -22 14 -37 -24 -11 -27 -18 -34 -32 -29 -23 7 -23
-5 0 -23 15 -13 15 -13 -8 -7 -14 4 -28 12 -32 18 -4 6 -8 7 -8 2 0 -15 32
-46 47 -46 15 0 17 -16 3 -25 -12 -7 -4 -25 12 -25 5 0 8 7 5 15 -4 8 -2 17 4
21 6 3 8 12 5 19 -2 7 2 16 9 19 8 3 12 12 9 21 -4 8 -1 15 6 15 7 0 10 7 6
15 -3 9 0 15 10 15 13 0 14 -11 8 -72 -5 -40 -7 -86 -6 -102 1 -16 -3 -36 -9
-43 -7 -7 -8 -13 -3 -13 14 1 44 26 44 38 0 6 3 12 8 14 4 2 31 36 61 76 52
70 150 166 160 156 3 -2 -6 -12 -19 -21 -44 -31 -95 -88 -155 -173 -33 -47
-70 -95 -82 -106 -13 -12 -23 -26 -23 -33 0 -6 -4 -11 -9 -11 -5 0 -11 -7 -14
-15 -9 -21 150 -117 293 -178 100 -43 122 -48 168 -45 28 3 52 1 52 -4 0 -4
12 -8 27 -8 14 0 23 3 19 7 -4 4 -15 8 -24 8 -12 0 -17 9 -17 29 0 16 -6 31
-12 33 -19 7 -16 24 3 21 10 -2 23 10 34 29 9 18 20 30 22 27 3 -3 8 2 12 11
3 9 2 13 -4 10 -6 -3 -10 1 -10 9 0 9 6 13 14 10 9 -3 17 6 24 25 6 17 8 31 5
31 -3 0 0 6 6 14 8 10 8 16 -2 25 -8 6 -16 9 -18 7 -2 -2 -11 3 -19 12 -13 14
-12 15 5 8 37 -16 60 -12 70 12 5 12 17 22 25 22 10 0 11 3 3 8 -8 5 -8 11 1
24 7 10 16 15 20 11 4 -4 4 0 0 10 -4 12 -1 17 11 17 9 0 14 4 11 8 -3 5 3 15
12 24 9 8 27 27 39 41 14 16 28 24 38 21 8 -4 15 -1 15 6 0 6 -4 8 -10 5 -5
-3 -10 -1 -10 4 0 6 11 11 25 11 14 0 25 5 25 10 0 13 32 45 53 53 11 4 14 2
10 -9 -3 -7 0 -14 6 -14 6 0 11 5 11 11 0 8 13 9 40 5 25 -4 40 -2 40 4 0 5 7
10 15 10 21 0 19 -13 -5 -28 -16 -10 -24 -10 -40 0 -15 10 -22 10 -31 1 -10
-10 -8 -14 7 -18 10 -4 27 -11 36 -16 21 -11 48 -2 48 16 0 22 29 40 42 27 7
-7 20 -12 29 -12 10 0 21 -5 24 -11 5 -7 -7 -8 -38 -4 -44 7 -46 6 -53 -19 -6
-27 -37 -36 -50 -14 -5 8 -11 6 -20 -6 -9 -14 -20 -16 -43 -11 -20 4 -31 3
-31 -4 0 -6 -7 -11 -15 -11 -8 0 -15 -7 -15 -15 0 -19 26 -19 34 0 6 16 36 21
36 5 0 -5 -7 -13 -16 -18 -13 -7 -14 -11 -4 -17 8 -5 18 -2 25 8 12 17 35 23
35 10 0 -5 -7 -16 -14 -25 -15 -20 -37 -23 -51 -9 -6 6 -18 1 -33 -14 -12 -13
-18 -26 -13 -29 5 -4 17 4 25 16 13 18 18 20 28 9 10 -11 10 -14 1 -18 -21 -7
-15 -33 7 -33 11 0 20 -5 20 -10 0 -16 -33 -26 -38 -12 -5 17 -32 15 -32 -3 0
-8 -4 -15 -10 -15 -5 0 -10 -6 -10 -14 0 -8 -8 -17 -17 -20 -12 -5 -13 -10 -5
-18 8 -8 16 -5 31 13 11 13 20 27 21 32 0 4 7 7 15 7 26 0 21 -9 -45 -87 -5
-7 -10 -17 -10 -23 0 -5 -4 -10 -8 -10 -5 0 -14 -16 -22 -35 -8 -19 -17 -35
-22 -35 -4 0 -8 -4 -8 -10 0 -5 7 -10 15 -10 8 0 15 5 15 10 0 6 7 10 15 10 8
0 15 -4 15 -10 0 -5 7 -10 15 -10 8 0 15 7 15 15 0 8 7 15 16 15 11 0 14 -5
10 -16 -3 -9 -6 -20 -6 -24 0 -12 -143 -8 -151 4 -4 4 -16 3 -27 -3 -14 -7
-23 -8 -27 -1 -7 12 -35 14 -35 2 0 -4 19 -15 43 -24 24 -9 41 -21 40 -29 0
-8 -3 -25 -5 -38 -2 -14 3 -26 11 -29 10 -3 12 0 8 13 -7 17 20 75 35 75 11 0
10 -4 -4 -37 -13 -30 -15 -39 -17 -65 -1 -19 -31 -26 -31 -8 0 6 -7 10 -15 10
-8 0 -15 -4 -15 -10 0 -5 6 -10 14 -10 20 0 26 -12 19 -38 -6 -26 -23 -19 -23
10 0 14 -5 18 -15 14 -9 -3 -18 1 -21 9 -4 8 -10 15 -16 15 -5 0 -25 12 -44
26 -19 15 -37 25 -39 22 -3 -3 7 -14 22 -24 35 -25 113 -104 113 -115 0 -5 7
-6 15 -3 9 4 15 0 15 -9 0 -21 -17 -31 -24 -15 -4 10 -7 10 -12 1 -3 -8 -15
-9 -36 -2 -17 4 -36 5 -42 1 -6 -4 -39 -7 -72 -8 -34 -1 -67 -4 -72 -8 -6 -3
-14 -1 -17 5 -4 5 -13 8 -20 5 -7 -2 -16 2 -19 10 -3 9 -10 13 -14 10 -5 -3
-16 11 -26 31 -13 28 -14 34 -3 30 10 -4 13 1 9 21 -4 22 -6 23 -17 9 -17 -23
-28 -21 -22 3 8 32 -3 23 -18 -15 -14 -33 -14 -35 11 -60 14 -14 22 -30 19
-35 -11 -18 -25 -11 -26 13 0 12 -3 16 -6 10 -7 -18 -23 -16 -23 2 0 8 -7 15
-15 15 -8 0 -15 6 -16 13 0 9 -2 9 -6 0 -8 -22 -43 -14 -74 16 -17 17 -29 24
-29 16 0 -27 -23 -28 -46 -2 -13 15 -29 24 -37 21 -8 -3 -17 2 -21 11 -3 9
-11 13 -18 9 -8 -5 -9 -2 -5 9 5 12 1 17 -13 17 -11 0 -20 4 -20 10 0 10 -64
42 -107 55 -14 4 -23 14 -23 27 0 14 -5 18 -15 14 -9 -3 -23 -2 -33 3 -9 5
-35 14 -57 21 -73 22 -123 50 -129 73 -3 11 -1 24 5 28 11 6 -23 19 -51 19
-13 0 -13 -1 0 -11 11 -7 6 -8 -20 -3 -40 7 -73 27 -63 37 3 4 1 7 -5 7 -6 0
-9 7 -6 15 4 9 0 15 -7 15 -8 1 -31 22 -51 48 -22 28 -47 48 -59 49 -12 1 -38
13 -58 27 -20 15 -45 26 -55 26 -24 0 -82 36 -90 55 -3 8 -15 15 -26 15 -12 0
-36 15 -53 32 -18 18 -34 33 -37 33 -3 0 -19 13 -34 28 -18 18 -35 27 -47 24
-27 -7 -25 29 2 44 18 9 27 6 58 -20 57 -49 154 -121 163 -121 5 0 1 14 -9 31
-10 17 -24 43 -32 56 -7 14 -25 32 -40 41 -32 19 -94 100 -86 113 4 5 0 9 -7
9 -19 0 -98 59 -98 73 0 16 31 47 47 47 13 0 126 -102 220 -199 42 -42 57 -46
28 -7 -8 10 -12 23 -9 28 3 5 0 7 -8 6 -7 -2 -12 5 -11 15 1 12 -9 22 -28 29
-16 5 -29 14 -29 19 0 5 -5 8 -10 7 -6 -2 -16 8 -23 21 -6 14 -32 39 -57 56
-52 37 -64 71 -28 84 14 5 31 5 43 -1 38 -19 104 -73 105 -84 0 -15 30 -27 30
-13 0 6 6 9 13 6 6 -2 11 -13 9 -23 -2 -18 -2 -18 8 -1 11 17 50 24 50 8 0 -5
12 -11 27 -14 29 -5 52 14 53 43 0 13 -1 13 -11 0 -8 -11 -9 -8 -4 15 4 17 9
56 12 87 4 47 8 56 23 55 10 -1 18 -8 18 -17 -1 -67 6 -171 12 -175 4 -3 8 39
8 92 1 67 5 98 14 104 10 6 9 9 -2 14 -11 4 -14 19 -12 61 l4 56 31 -5 c104
-15 247 -69 247 -93 0 -8 5 -14 10 -14 6 0 10 5 10 12 0 6 3 8 7 5 3 -4 12 -2
20 4 9 8 10 15 3 24 -7 9 -8 15 -1 19 6 4 7 14 4 23 -5 13 -2 15 18 10 21 -5
22 -4 7 6 -24 18 -28 62 -5 61 9 -1 17 5 17 13 0 7 -6 13 -13 11 -7 -2 -14 2
-15 7 -2 6 5 12 15 13 10 2 23 9 28 14 7 7 0 9 -22 5 -25 -5 -33 -3 -33 8 0 8
7 16 15 16 8 1 20 3 25 4 6 1 17 3 25 4 8 0 15 5 15 10 0 4 -18 6 -40 4 -22
-2 -40 0 -40 5 0 14 26 22 70 22 21 0 41 4 45 9 3 6 -21 8 -60 5 -54 -4 -65
-2 -65 11 0 11 10 15 35 15 19 0 35 4 35 9 0 6 -16 7 -35 4 -28 -5 -35 -2 -35
11 0 10 -5 14 -10 11 -8 -5 -8 -11 0 -20 7 -9 6 -16 -4 -24 -18 -15 -29 0 -19
26 6 15 4 16 -9 5 -9 -7 -13 -22 -11 -37 4 -18 1 -24 -13 -24 -119 -3 -377 0
-384 4 -5 3 -7 12 -4 19 6 15 -24 26 -68 26 -25 0 -28 4 -28 34 0 43 -9 68
-22 60 -5 -3 -4 -12 4 -22 11 -14 9 -15 -17 -9 -16 3 -39 9 -50 13 -17 7 -18
6 -7 -8 7 -9 24 -19 37 -22 14 -4 25 -11 25 -16 0 -10 -40 -4 -49 7 -4 5 -21
21 -38 37 l-32 29 2 -24 c1 -13 14 -36 28 -51 19 -20 28 -43 33 -83 8 -74 0
-105 -38 -137 l-31 -26 30 -8 c17 -4 49 -16 73 -26 25 -11 52 -17 65 -13 15 4
18 4 8 -3 -11 -8 -11 -10 0 -15 9 -3 6 -6 -7 -6 -12 -1 -54 12 -94 29 -40 16
-77 27 -83 23 -6 -4 -7 -1 -2 7 6 10 4 12 -8 7 -9 -3 -18 -1 -20 6 -3 9 -8 9
-18 0 -25 -25 -30 -12 -25 65 5 74 5 75 -7 34 -7 -24 -20 -50 -30 -57 -10 -7
-17 -17 -15 -22 4 -11 -34 -15 -50 -5 -7 5 -14 20 -16 33 -3 35 -12 46 -43 54
-15 3 -31 12 -35 18 -6 9 -8 8 -8 -1 0 -10 -8 -12 -30 -7 -19 4 -36 2 -45 -5
-21 -17 -31 50 -15 106 12 41 57 94 81 94 5 0 11 11 15 25 9 34 97 112 142
125 49 13 183 13 219 -1 30 -11 108 -28 158 -33 17 -1 37 -5 45 -7 13 -3 16
28 20 223 3 124 8 230 13 234 4 4 7 2 7 -5 0 -7 5 -9 10 -6 6 3 10 1 10 -5 0
-6 4 -9 9 -6 15 10 21 -51 23 -228 l1 -171 7 168 c7 161 8 169 31 190 13 12
33 23 44 25 11 2 31 5 45 8 14 2 36 -1 50 -9 21 -11 25 -20 27 -67 2 -45 -1
-60 -20 -82 -17 -20 -22 -35 -19 -62 2 -21 10 -36 17 -36 7 0 19 -14 27 -31
10 -24 18 -29 37 -26 13 3 39 -2 58 -10 52 -21 170 -16 196 10 13 13 27 17 47
14 15 -3 32 -1 39 6 9 9 14 9 20 -1 4 -7 14 -12 22 -10 8 2 15 -7 17 -19 3
-18 10 -23 33 -23 16 0 29 -4 29 -10 0 -5 5 -10 12 -10 6 0 4 7 -5 18 -19 21
-23 42 -5 24 7 -7 15 -12 20 -12 11 0 -3 60 -23 95 -18 31 -34 122 -30 165 1
14 11 34 21 44 16 17 24 18 52 9 26 -7 37 -7 46 3 13 14 72 8 83 -8 3 -6 9 0
12 11 3 14 16 23 37 27 20 5 29 11 26 20 -10 25 12 24 38 -3 29 -29 28 -58 -4
-81 -18 -13 -18 -15 4 -38 26 -28 47 -25 66 11 21 39 -11 128 -56 156 -19 11
-34 24 -34 28 0 4 -145 11 -322 15 -445 10 -551 15 -565 29 -17 18 -4 67 21
77 20 8 20 9 1 10 -18 1 -18 2 3 11 13 5 21 13 18 18 -3 5 194 10 452 13 251
3 458 1 460 -3 2 -5 29 18 61 51 50 53 83 78 66 50z m785 -89 c19 -5 150 -13
290 -16 307 -7 420 -14 420 -26 0 -5 -9 -9 -20 -9 -30 0 -24 -23 12 -43 31
-18 31 -18 12 -36 -22 -22 -84 -28 -344 -36 -307 -10 -340 -12 -343 -16 -2 -2
-2 -25 1 -51 4 -47 4 -47 47 -54 24 -3 139 -7 257 -9 117 -2 224 -3 238 -4 14
0 69 2 122 5 90 5 99 4 130 -18 18 -13 34 -23 36 -24 4 -2 1 -1240 -4 -1699
l-4 -400 -40 -125 c-22 -69 -44 -137 -49 -153 -9 -25 -6 -29 29 -47 22 -11 47
-20 57 -20 17 -1 17 -1 0 -11 -10 -6 -21 -8 -24 -5 -3 3 -14 -5 -24 -18 -16
-21 -29 -23 -137 -29 l-119 -7 -134 45 c-73 25 -143 45 -156 45 -34 0 -28 -25
10 -43 68 -32 153 -65 185 -72 23 -5 32 -12 32 -27 0 -15 -6 -19 -27 -17 -16
1 -35 -1 -43 -5 -8 -3 -78 -4 -155 -1 -77 3 -177 5 -221 5 -49 -1 -85 3 -89 9
-3 6 -17 11 -31 11 -14 0 -27 7 -31 16 -7 19 14 44 25 28 5 -7 35 -8 97 -2
172 17 175 18 175 37 0 10 7 24 14 31 11 8 12 18 6 36 -5 13 -6 34 -1 47 4 12
7 64 7 116 l-1 94 -50 13 c-73 19 -79 18 -61 -8 22 -31 20 -54 -6 -72 -32 -23
-240 -23 -259 0 -9 11 -13 61 -15 170 -2 85 -6 158 -8 163 -3 5 0 29 8 54 8
25 12 48 10 50 -2 2 3 20 11 40 25 60 8 42 -29 -30 -19 -38 -35 -64 -36 -60 0
4 11 29 24 55 13 26 27 58 31 72 4 14 16 43 26 65 85 189 137 361 141 470 2
31 -46 156 -65 172 -27 23 -42 49 -52 91 -3 18 -11 32 -17 32 -6 0 -9 3 -5 6
8 9 -63 84 -80 84 -8 0 -12 3 -10 8 3 4 -17 36 -44 72 -27 36 -47 70 -44 77 5
15 -24 51 -45 55 -8 2 -23 25 -32 52 -16 49 -16 51 8 98 22 43 27 47 44 38 13
-7 20 -21 20 -41 0 -18 4 -28 10 -24 6 3 10 15 10 26 0 10 6 19 14 19 7 0 26
18 41 40 15 22 31 40 36 40 4 0 16 24 27 53 32 84 44 107 58 107 7 0 15 13 19
30 4 16 17 45 30 63 12 19 22 45 20 58 -1 13 0 16 2 7 9 -35 21 -17 34 50 15
73 14 133 -1 162 -6 10 -10 30 -10 44 0 15 -5 25 -12 24 -6 -2 -17 22 -24 57
-19 87 -17 94 14 59 15 -18 43 -37 62 -43z m-1603 -293 c29 -20 34 -28 31 -58
-3 -34 -2 -35 33 -36 36 0 37 0 22 23 -14 21 -14 25 3 44 27 30 85 23 102 -13
7 -15 26 -37 42 -48 17 -12 30 -30 30 -41 0 -10 5 -19 10 -19 6 0 10 7 10 15
0 13 4 12 22 -5 26 -24 20 -32 -27 -34 -19 0 -35 -5 -35 -10 0 -5 -7 -2 -16 5
-9 7 -23 14 -31 15 -17 3 -62 -44 -63 -64 0 -16 -44 -36 -63 -29 -9 3 -18 19
-22 36 -6 27 -11 31 -39 31 -62 0 -103 62 -58 90 15 10 15 10 -3 5 -29 -7 -59
43 -46 78 16 42 50 47 98 15z m-669 -19 c48 -12 53 -11 67 7 15 19 15 18 35
-5 11 -12 17 -27 14 -32 -3 -5 1 -9 8 -9 7 0 24 -9 38 -20 20 -16 22 -20 8
-20 -10 0 -35 -17 -57 -37 -26 -26 -49 -39 -70 -40 -17 -1 -39 -9 -47 -18 -9
-8 -23 -15 -32 -14 -14 0 -13 2 3 8 12 5 -48 10 -145 13 -182 6 -258 21 -297
60 -50 50 6 97 138 118 72 12 271 5 337 -11z m1665 -184 c37 6 47 4 45 -7 -3
-12 -40 -46 -46 -40 -9 9 -61 -32 -66 -51 -3 -14 -18 -32 -32 -42 -23 -15 -28
-15 -41 -2 -20 20 -34 85 -26 125 5 30 8 33 32 28 21 -5 23 -4 9 4 -39 24 -15
26 30 3 38 -20 56 -23 95 -18z m407 -814 c0 -4 -11 -17 -25 -27 -28 -21 -32
-34 -10 -34 8 0 15 5 15 10 0 6 7 10 15 10 8 0 15 5 15 12 0 6 2 9 5 6 9 -9
-7 -38 -21 -38 -8 0 -14 -5 -14 -11 0 -7 -12 -22 -27 -35 -22 -19 -24 -24 -10
-24 9 0 17 5 17 10 0 6 7 10 15 10 8 0 15 5 15 10 0 6 7 10 15 10 8 0 15 -3
15 -7 0 -14 -124 -88 -142 -86 -12 2 -15 -2 -11 -13 4 -10 1 -14 -8 -12 -13 3
-59 -34 -59 -48 0 -3 -6 -11 -12 -19 -7 -7 -22 -25 -32 -39 -13 -18 -25 -25
-38 -21 -21 7 -26 -20 -5 -28 6 -3 -1 -6 -16 -6 -16 -1 -26 -5 -22 -10 3 -5
-6 -22 -20 -37 -19 -21 -28 -24 -39 -15 -11 9 -15 8 -20 -5 -4 -12 -2 -15 9
-10 9 3 15 0 15 -10 0 -11 -6 -13 -19 -9 -26 8 -36 -11 -14 -25 14 -9 14 -10
2 -7 -9 3 -20 2 -25 -1 -11 -8 -48 -82 -49 -97 0 -9 -8 -11 -35 -6 -5 0 -10 8
-10 17 0 11 6 14 20 9 23 -7 27 10 4 19 -8 3 -13 10 -9 15 3 6 12 8 20 4 8 -3
15 0 15 6 0 6 -4 11 -10 11 -5 0 -10 7 -10 15 0 8 5 15 10 15 6 0 10 -5 10
-11 0 -5 5 -7 10 -4 15 9 12 25 -5 25 -8 0 -15 7 -15 15 0 8 5 15 10 15 6 0
10 -4 10 -10 0 -18 22 -10 27 10 3 11 9 20 13 20 5 0 6 9 3 20 -3 11 0 20 6
20 6 0 11 9 11 20 0 11 5 20 11 20 5 0 8 4 4 9 -5 9 24 70 47 99 7 8 7 12 -2
12 -6 0 -10 6 -7 13 4 14 49 17 58 3 4 -4 17 2 29 14 12 12 20 24 17 26 -2 2
-10 -2 -17 -11 -7 -8 -17 -15 -23 -15 -6 0 1 12 15 28 14 15 33 39 43 54 9 15
21 25 26 22 15 -9 10 -24 -7 -24 -8 0 -12 -5 -9 -11 4 -6 13 -8 21 -5 8 3 14
1 14 -4 0 -5 7 -7 15 -4 9 4 15 0 15 -10 0 -9 -7 -16 -15 -16 -8 0 -15 5 -15
11 0 6 -7 9 -15 5 -8 -3 -15 -1 -15 4 0 5 -7 7 -15 4 -8 -4 -15 -10 -15 -15 0
-4 7 -6 15 -3 15 6 22 -11 7 -18 -10 -4 -62 -73 -62 -81 0 -4 5 -7 10 -7 6 0
10 7 10 15 0 9 7 18 15 21 8 4 15 12 15 20 0 8 7 14 16 14 8 0 13 4 9 9 -7 13
12 24 26 16 7 -5 4 -14 -7 -26 -9 -10 -13 -19 -9 -19 5 0 26 18 46 40 21 22
40 40 44 40 3 0 16 11 29 25 13 14 28 25 35 25 14 0 14 17 0 26 -6 3 -21 -5
-34 -20 -12 -14 -27 -26 -34 -26 -6 0 -11 -7 -11 -15 0 -8 -7 -15 -15 -15 -23
0 -18 16 12 39 14 12 23 24 19 28 -4 4 -20 -8 -36 -27 -16 -19 -32 -31 -36
-27 -4 4 5 18 19 31 15 14 27 30 27 36 0 14 13 13 28 -2 10 -10 17 -7 36 15
13 15 28 27 34 27 5 0 12 7 16 15 6 16 26 21 26 6z m-450 -196 c0 -8 7 -15 15
-15 8 0 15 -5 15 -11 0 -6 -7 -9 -15 -6 -10 4 -22 -11 -41 -49 -26 -53 -44
-76 -44 -55 0 6 -4 11 -10 11 -9 0 -50 -79 -50 -97 0 -20 -26 -63 -37 -63 -17
0 -16 19 1 26 8 3 12 13 9 25 -3 11 0 19 6 19 7 0 9 5 6 10 -4 6 -1 18 6 26 6
8 9 17 6 20 -8 9 -28 -6 -22 -16 3 -5 1 -11 -5 -15 -5 -3 -10 -15 -10 -26 0
-10 -4 -19 -10 -19 -5 0 -10 -9 -10 -20 0 -11 -4 -20 -10 -20 -5 0 -7 -7 -4
-15 4 -8 1 -15 -5 -15 -6 0 -11 -9 -11 -20 0 -11 -7 -20 -15 -20 -8 0 -15 7
-15 15 0 8 5 15 11 15 6 0 9 7 6 15 -4 8 -2 17 3 20 12 7 13 25 3 25 -5 0 -24
-34 -43 -75 -19 -41 -38 -75 -42 -75 -15 0 -18 19 -4 27 11 6 12 13 6 23 -8
12 -11 11 -16 -7 -4 -13 -10 -23 -15 -23 -5 0 -9 -9 -9 -19 0 -11 -4 -22 -9
-26 -5 -3 -12 -19 -16 -35 -4 -17 -11 -30 -16 -30 -5 0 -9 -9 -9 -20 0 -11 -7
-20 -15 -20 -8 0 -15 7 -15 15 0 8 5 15 11 15 5 0 7 5 4 10 -10 16 -22 11 -30
-12 -4 -13 -8 -25 -9 -28 -2 -3 -8 -17 -14 -32 -6 -16 -16 -28 -21 -28 -6 0
-8 -7 -5 -15 4 -9 0 -15 -10 -15 -18 0 -22 15 -6 25 14 9 12 25 -3 25 -7 0
-19 -16 -27 -35 -15 -38 -20 -41 -39 -22 -10 10 -14 9 -22 -5 -10 -18 -29 -24
-29 -10 0 5 9 17 19 29 10 11 26 34 35 51 11 21 21 29 31 26 8 -4 15 -1 15 7
0 7 -3 10 -6 6 -10 -9 -36 21 -29 33 4 6 10 8 15 5 5 -3 12 0 16 6 4 8 3 9 -4
5 -7 -4 -12 -1 -12 9 0 12 8 14 33 11 29 -5 30 -4 10 6 -33 16 -28 29 8 23 27
-5 30 -3 24 15 -5 16 -3 19 11 13 13 -5 15 -2 9 16 -4 15 -3 21 7 19 8 -2 12
4 10 15 -2 9 2 17 8 17 6 0 8 -6 4 -12 -4 -7 4 -3 17 9 15 14 34 21 51 19 18
-2 25 1 21 10 -2 7 -12 10 -20 7 -11 -4 -14 -2 -9 5 4 7 19 9 38 5 22 -4 29
-3 24 5 -4 8 3 16 19 22 14 5 23 15 20 20 -3 6 0 13 8 15 7 3 20 21 27 40 8
19 17 35 21 35 4 0 9 9 12 21 3 13 10 18 17 14 9 -5 9 -10 1 -18 -14 -14 -14
-27 -1 -27 6 0 10 5 10 10 0 6 12 28 26 50 22 33 31 39 50 34 18 -5 24 -2 24
10 0 9 5 16 10 16 6 0 10 7 10 15 0 8 5 15 10 15 6 0 10 7 10 15 0 8 7 15 15
15 8 0 15 -7 15 -15z m-2166 -191 c-7 -17 -11 -34 -8 -37 3 -3 -3 -16 -14 -28
-19 -20 -27 -83 -10 -72 5 2 18 -8 31 -22 19 -23 26 -25 48 -16 15 5 29 17 32
25 4 9 13 16 22 16 8 0 15 8 16 18 1 11 4 9 9 -8 5 -17 8 -19 9 -7 1 9 5 17
11 17 5 0 7 -6 5 -12 -7 -18 11 -42 24 -33 8 5 9 11 2 19 -6 7 -8 16 -4 19 3
4 0 13 -6 21 -10 12 -9 17 7 27 11 7 17 19 15 30 -4 15 1 18 37 16 27 -2 44 2
49 12 5 8 13 11 22 6 23 -15 69 -16 69 -2 1 6 10 1 21 -13 12 -14 29 -25 38
-25 12 0 15 -8 13 -35 -2 -19 -8 -40 -14 -47 -10 -13 14 -70 29 -66 13 3 63
-39 63 -54 0 -8 3 -12 8 -10 4 3 8 -12 8 -33 1 -21 9 -49 17 -61 10 -13 14
-33 10 -50 -7 -36 37 -80 76 -77 35 3 54 -10 48 -33 -3 -10 -1 -21 4 -24 4 -3
6 -12 2 -20 -3 -8 0 -15 7 -15 7 0 10 -6 7 -14 -3 -8 1 -17 9 -20 8 -3 14 -14
14 -24 0 -10 4 -22 10 -28 5 -5 11 -19 13 -31 5 -32 12 -36 35 -22 26 16 45 2
73 -53 13 -26 34 -46 67 -62 54 -28 45 -33 -19 -11 -67 24 -83 19 -218 -69
-41 -27 -100 -62 -130 -78 -31 -17 -61 -34 -67 -39 -6 -5 -20 -10 -32 -12 -12
-2 -25 -6 -28 -10 -4 -4 -14 -7 -22 -7 -12 0 -12 2 -1 17 13 15 12 15 -8 5
-12 -7 -26 -20 -32 -29 -7 -14 -12 -15 -24 -4 -9 7 -17 21 -19 32 -3 18 -5 18
-30 -6 -16 -14 -28 -22 -28 -18 0 11 137 145 170 167 22 14 22 16 5 16 -17 0
-17 2 -5 10 12 8 10 10 -10 10 -52 1 -78 45 -84 145 -3 39 -12 84 -20 100 -15
29 -15 30 12 39 43 14 93 67 91 96 -1 14 1 44 5 67 4 23 4 48 0 55 -4 7 -7 30
-5 52 2 36 1 38 -13 27 -9 -8 -16 -25 -16 -40 0 -42 -20 -101 -41 -122 -10
-10 -19 -23 -19 -29 0 -14 -48 -43 -60 -35 -6 4 -10 -5 -10 -22 l0 -28 -28 34
c-49 61 -73 110 -66 136 7 27 -12 36 -22 11 -3 -8 -14 -13 -24 -11 -10 2 -21
-5 -28 -18 -12 -27 -31 -94 -35 -123 -2 -12 -17 -39 -34 -60 -25 -31 -34 -37
-44 -26 -10 9 -10 12 -1 12 7 0 12 5 12 12 0 9 -3 9 -12 0 -17 -17 -41 -15
-35 2 3 8 -2 16 -14 19 -15 4 -19 0 -19 -19 0 -18 5 -24 21 -24 18 0 20 -4 14
-32 -12 -54 -49 -75 -75 -43 -10 12 -10 21 -1 41 7 17 8 31 1 44 -5 10 -10 28
-10 39 0 12 -4 21 -9 21 -15 0 -23 -18 -11 -25 16 -10 12 -42 -6 -49 -27 -10
-104 -7 -104 5 0 19 91 179 102 179 6 0 8 -6 5 -12 -2 -7 0 -24 4 -37 8 -19
12 -21 24 -11 8 7 15 23 15 36 0 13 3 24 8 24 14 0 52 67 52 93 0 22 -5 27
-35 33 -19 3 -35 11 -35 18 0 18 -32 32 -68 30 -26 -1 -32 2 -28 15 3 9 13 47
21 85 26 112 65 166 136 188 22 6 39 16 39 21 0 6 8 2 18 -9 17 -17 17 -23 6
-50z m-236 -291 l0 -25 -227 3 c-250 3 -266 4 -248 24 9 9 54 13 167 14 85 1
155 3 156 4 1 1 36 2 77 3 73 1 75 1 75 -23z m4142 -37 c0 -16 -22 -115 -29
-131 -5 -11 -16 -47 -25 -80 -43 -158 -109 -365 -128 -397 -12 -21 -13 -19
-19 37 -4 39 -1 71 7 93 7 17 11 32 9 32 -2 0 7 11 20 25 16 15 25 36 25 54 0
16 5 33 10 36 6 3 10 19 10 35 0 16 7 36 16 44 8 9 12 21 9 27 -4 6 0 29 8 52
8 23 20 61 26 83 6 23 18 47 26 54 8 7 15 19 15 26 0 8 5 14 10 14 6 0 10 -2
10 -4z m-2684 -387 c56 -57 73 -80 68 -94 -6 -14 -3 -16 14 -11 11 4 23 2 27
-4 3 -5 1 -10 -5 -10 -6 0 -8 -5 -4 -12 5 -7 3 -8 -6 -3 -17 11 -90 14 -90 4
0 -4 -3 -14 -6 -23 -3 -9 -1 -16 5 -16 6 0 10 5 9 12 -4 16 48 17 77 2 20 -10
24 -9 28 8 4 12 10 17 17 13 8 -5 9 -10 1 -18 -7 -7 -7 -14 0 -24 9 -10 8 -13
-1 -13 -7 0 -10 -7 -7 -15 4 -8 2 -17 -4 -20 -5 -4 -9 -12 -8 -18 2 -19 -12
-57 -21 -57 -9 0 -7 34 3 60 12 29 12 53 1 57 -7 2 -12 -2 -11 -9 1 -39 -5
-58 -18 -58 -8 0 -15 5 -15 11 0 5 -4 7 -10 4 -17 -10 -11 -22 12 -29 17 -4
20 -8 11 -17 -6 -6 -9 -18 -6 -25 3 -8 0 -14 -5 -14 -16 0 -24 18 -12 25 12 7
4 25 -11 25 -5 0 -9 -6 -9 -14 0 -8 -4 -17 -9 -20 -5 -4 -7 3 -4 14 4 14 0 20
-11 20 -9 0 -16 5 -16 11 0 6 7 9 15 5 26 -10 16 10 -12 25 -29 14 -43 24 -68
47 -8 7 -15 9 -15 3 0 -5 9 -17 21 -25 12 -8 20 -19 17 -26 -2 -7 -11 -4 -23
8 -21 19 -50 19 -38 -1 3 -6 -6 -2 -20 9 -15 10 -27 28 -28 39 -5 62 -5 84 2
120 4 22 10 58 13 80 4 22 9 58 13 79 l6 39 30 -34 c16 -19 63 -68 103 -110z
m-2551 63 c32 -8 45 -23 45 -51 0 -45 -15 -51 -137 -51 -92 0 -113 3 -113 15
0 9 14 16 38 20 59 10 73 16 66 26 -18 29 26 64 66 51 8 -2 24 -7 35 -10z
m1147 -46 c-4 -14 5 -28 28 -48 42 -34 58 -32 -215 -33 -115 -1 -222 -5 -237
-8 -15 -4 -29 -4 -32 1 -5 9 9 80 17 89 8 7 208 18 333 18 105 0 111 -1 106
-19z m4054 -190 c-3 -12 -2 -26 2 -30 4 -4 12 -48 17 -98 10 -80 9 -93 -7
-119 -10 -16 -22 -29 -27 -29 -16 0 -25 60 -25 176 -1 85 2 110 12 107 6 -3
12 0 12 6 0 6 5 11 11 11 7 0 9 -9 5 -24z m-4264 -466 c74 -10 143 -17 155
-14 12 3 59 -3 105 -14 46 -11 108 -23 138 -27 59 -8 90 -20 90 -35 0 -19 -48
-21 -111 -7 -86 21 -120 27 -214 37 -75 9 -221 33 -273 45 -13 3 -20 10 -17
14 3 5 -1 12 -7 14 -23 9 -1 7 134 -13z m-22 -110 c74 -5 205 -16 290 -25 85
-8 172 -15 193 -17 46 -3 46 -2 -34 -119 l-61 -89 -107 -1 c-138 -2 -125 -3
-206 6 -38 4 -72 10 -75 14 -3 4 -16 7 -30 8 -25 1 -73 12 -140 32 -19 6 -71
20 -115 32 -44 12 -84 25 -88 29 -5 4 8 39 27 78 l36 71 87 -5 c49 -3 149 -9
223 -14z"/>
<path d="M3068 2573 c-16 -8 -28 -21 -28 -29 0 -8 -7 -17 -15 -20 -11 -5 -14
-20 -12 -60 1 -37 6 -53 14 -50 6 3 14 0 16 -7 2 -8 23 -11 56 -10 36 2 61 -3
79 -15 19 -12 27 -13 30 -4 2 7 7 10 11 8 10 -7 11 32 1 60 -6 15 -6 24 0 24
6 0 10 4 10 10 0 6 -17 8 -40 5 -45 -6 -100 16 -100 40 0 8 -5 15 -12 15 -6 0
-8 3 -4 8 4 4 13 7 19 7 7 0 13 8 15 18 4 20 -3 20 -40 0z"/>
<path d="M5462 1868 c-7 -7 -12 -20 -12 -31 0 -10 -5 -27 -11 -39 -6 -11 -11
-40 -11 -63 -1 -60 -30 -95 -83 -99 -23 -1 -45 3 -52 10 -15 15 -18 38 -4 29
14 -8 34 33 28 56 -3 10 0 20 6 22 5 1 8 9 6 15 -3 9 -10 8 -24 -5 -11 -10
-26 -18 -34 -18 -8 0 -16 -6 -18 -12 -3 -7 2 -13 11 -13 9 0 16 -7 16 -16 0
-8 -4 -13 -9 -10 -5 3 -12 -5 -15 -18 -6 -24 -51 -42 -62 -25 -3 5 -19 9 -36
9 l-31 0 36 -35 c21 -20 37 -40 37 -44 0 -19 35 -20 74 -2 94 43 99 37 84 -90
-12 -98 -15 -93 87 -114 19 -4 27 -14 32 -35 3 -17 9 -33 13 -35 5 -3 29 15
55 39 l47 45 -21 47 c-12 25 -21 55 -21 66 0 15 -5 18 -20 13 -15 -5 -22 0
-29 18 -5 14 -16 27 -23 30 -17 6 22 38 39 32 7 -2 21 4 30 14 15 16 17 34 15
98 -3 74 -6 82 -38 118 -19 21 -34 42 -34 47 0 12 -14 10 -28 -4z"/>
<path d="M2327 2009 c-41 -24 -55 -110 -21 -123 16 -6 19 10 4 19 -5 3 -10 12
-10 18 0 7 11 -1 24 -17 22 -28 22 -31 6 -45 -18 -16 -38 -76 -23 -69 71 33
97 77 70 120 -8 13 -18 33 -22 46 -5 18 -2 22 14 22 11 0 27 -10 35 -22 15
-21 16 -21 16 -2 0 50 -49 78 -93 53z"/>
</g>
</svg>
