<?xml version="1.0" standalone="no"?>
<!DOCTYPE svg PUBLIC "-//W3C//DTD SVG 20010904//EN"
 "http://www.w3.org/TR/2001/REC-SVG-20010904/DTD/svg10.dtd">
<svg version="1.0" xmlns="http://www.w3.org/2000/svg"
 width="500.000000pt" height="500.000000pt" viewBox="0 0 500.000000 500.000000"
 preserveAspectRatio="xMidYMid meet">
<metadata>
Created by potrace 1.16, written by Peter Selinger 2001-2019
</metadata>
<g transform="translate(0.000000,500.000000) scale(0.100000,-0.100000)"
fill="#000000" stroke="none">
<path d="M0 2500 l0 -2500 2500 0 2500 0 0 2500 0 2500 -2500 0 -2500 0 0
-2500z m2231 887 c58 -39 74 -98 43 -158 -8 -17 -14 -32 -12 -33 2 -2 50 -15
108 -29 l105 -26 265 50 c146 27 268 49 273 49 4 0 7 -10 7 -22 0 -21 -13 -26
-148 -62 -249 -67 -246 -54 -37 -121 99 -31 182 -59 184 -61 2 -2 0 -12 -5
-23 -9 -17 -21 -15 -264 41 l-255 59 -122 -32 c-68 -18 -123 -35 -123 -39 0
-4 7 -13 15 -20 18 -15 29 -72 21 -106 -4 -15 -20 -39 -36 -55 -24 -25 -37
-29 -80 -29 -46 0 -56 4 -86 34 -28 28 -34 42 -34 78 l-1 43 -19 -23 c-11 -13
-25 -43 -32 -65 -14 -50 -33 -77 -22 -32 14 59 47 116 90 154 38 33 61 42 186
75 79 21 146 41 151 45 20 19 -25 42 -130 66 -61 14 -121 25 -133 25 -12 0
-37 15 -56 34 -45 45 -48 108 -7 156 46 55 99 64 154 27z m-991 -1004 c0 -5
25 -53 55 -108 l54 -100 1 68 c0 60 -2 67 -20 67 -17 0 -20 7 -20 40 l0 40 75
0 75 0 0 -40 c0 -33 -3 -40 -20 -40 -19 0 -20 -7 -20 -145 l0 -145 -69 0 -69
0 -56 103 -55 102 -1 -62 c0 -56 2 -63 20 -63 17 0 20 -7 20 -40 l0 -40 -75 0
-75 0 0 39 c0 30 4 40 20 44 18 5 20 14 20 106 0 94 -1 101 -20 101 -17 0 -20
7 -20 40 l0 40 90 0 c50 0 90 -3 90 -7z m576 -135 c29 -105 43 -142 57 -146
12 -3 17 -15 17 -43 l0 -39 -105 0 -105 0 0 40 c0 29 4 40 15 40 8 0 15 9 15
20 0 17 -7 20 -45 20 -25 0 -45 -2 -45 -4 0 -2 -3 -11 -6 -20 -4 -12 0 -16 15
-16 18 0 21 -6 21 -40 l0 -40 -80 0 -80 0 0 40 c0 32 4 40 18 40 15 0 25 19
46 92 16 50 30 98 33 105 3 9 -3 13 -21 13 -24 0 -26 4 -26 40 l0 40 118 0
119 0 39 -142z m304 102 c0 -30 -4 -40 -16 -40 -11 0 -14 -5 -10 -17 4 -9 14
-45 23 -80 8 -35 17 -62 20 -60 2 3 12 39 22 81 15 62 16 76 5 76 -10 0 -14
13 -14 40 l0 40 80 0 80 0 0 -39 c0 -33 -4 -40 -22 -43 -20 -3 -29 -22 -68
-146 l-44 -143 -70 3 -70 3 -41 140 c-35 122 -44 140 -63 143 -18 3 -22 10
-22 43 l0 39 105 0 105 0 0 -40z m544 -105 c31 -105 45 -141 59 -143 13 -3 17
-13 17 -43 l0 -39 -105 0 -105 0 0 40 c0 30 4 40 16 40 9 0 14 7 12 18 -3 13
-13 17 -48 17 -35 0 -45 -4 -48 -17 -2 -13 3 -18 17 -18 18 0 21 -6 21 -40 l0
-40 -80 0 -80 0 0 39 c0 29 4 40 17 43 12 2 27 32 49 103 l31 100 -23 3 c-21
3 -24 9 -24 43 l0 40 117 -3 117 -3 40 -140z m316 105 c0 -33 -3 -40 -20 -40
-19 0 -20 -7 -20 -105 l0 -105 29 0 c25 0 31 5 43 43 11 34 18 43 41 45 l27 3
0 -85 0 -86 -150 0 -150 0 0 40 c0 33 3 40 20 40 19 0 20 7 20 105 0 98 -1
105 -20 105 -17 0 -20 7 -20 40 l0 40 100 0 100 0 0 -40z m320 0 c0 -29 -4
-40 -15 -40 -10 0 -15 -10 -15 -30 0 -29 2 -30 45 -30 43 0 45 1 45 30 0 20
-5 30 -15 30 -11 0 -15 11 -15 40 l0 40 95 0 95 0 0 -40 c0 -33 -3 -40 -20
-40 -19 0 -20 -7 -20 -101 0 -92 2 -101 20 -106 16 -4 20 -14 20 -44 l0 -39
-95 0 -95 0 0 40 c0 29 4 40 15 40 11 0 15 11 15 36 l0 35 -42 -3 c-39 -3 -43
-6 -46 -31 -2 -18 2 -29 12 -33 11 -4 16 -19 16 -45 l0 -39 -90 0 -90 0 0 40
c0 29 4 40 15 40 12 0 15 18 15 105 0 87 -3 105 -15 105 -11 0 -15 11 -15 40
l0 40 90 0 90 0 0 -40z m559 -27 c11 -38 30 -103 42 -145 17 -61 26 -78 41
-78 14 0 18 -8 18 -40 l0 -40 -105 0 -105 0 0 40 c0 29 4 40 15 40 17 0 18 2
9 24 -4 11 -19 16 -50 16 -37 0 -44 -3 -44 -20 0 -13 7 -20 20 -20 17 0 20 -7
20 -40 l0 -40 -80 0 -80 0 0 39 c0 29 5 40 17 43 11 2 25 32 44 93 34 108 35
115 9 115 -17 0 -20 7 -20 40 l0 40 115 0 114 0 20 -67z"/>
<path d="M2123 3385 c-53 -23 -78 -96 -52 -148 16 -31 50 -57 76 -57 12 0 69
-11 127 -25 58 -14 117 -25 132 -25 46 0 16 16 -65 35 -105 24 -109 27 -82 60
40 52 17 135 -44 161 -42 17 -51 17 -92 -1z m97 -45 c31 -31 30 -72 -3 -107
-44 -49 -121 -15 -121 52 0 66 78 101 124 55z"/>
<path d="M2730 3179 c-140 -26 -270 -51 -288 -54 -28 -5 -32 -10 -30 -32 3
-26 0 -27 -140 -64 -155 -41 -188 -56 -202 -95 -19 -49 -12 -84 24 -120 28
-28 42 -34 76 -34 34 0 48 6 76 34 42 42 45 87 9 139 -13 20 -21 38 -17 40 4
2 179 51 390 107 258 70 382 108 382 117 0 16 19 19 -280 -38z m-511 -237 c33
-26 31 -79 -3 -109 -43 -36 -87 -29 -111 18 -20 37 -19 51 6 83 25 31 75 35
108 8z"/>
</g>
</svg>
